<?xml version="1.0" encoding="UTF-8" standalone="no"?><!DOCTYPE svg PUBLIC "-//W3C//DTD SVG 1.1//EN" "http://www.w3.org/Graphics/SVG/1.1/DTD/svg11.dtd"><svg width="100%" height="100%" viewBox="0 0 64 64" version="1.1" xmlns="http://www.w3.org/2000/svg" xmlns:xlink="http://www.w3.org/1999/xlink" xml:space="preserve" xmlns:serif="http://www.serif.com/" style="fill-rule:evenodd;clip-rule:evenodd;stroke-linecap:round;stroke-linejoin:round;stroke-miterlimit:1.5;"><g id="Cloudy"><path id="Cloud" d="M45.958,43.319l-30.858,0c-5.976,0 -10.829,-4.852 -10.829,-10.828c0,-5.977 4.853,-10.829 10.829,-10.829c1.485,0 2.901,0.299 4.19,0.842c0.427,-6.973 6.224,-12.504 13.303,-12.504c6.222,0 11.454,4.273 12.919,10.043" style="fill:none;stroke:#00a9ff;stroke-width:2px;"/><path id="Cloud1" serif:id="Cloud" d="M32.309,43.319c-4.184,0 -7.58,-3.396 -7.58,-7.58c0,-4.183 3.396,-7.58 7.58,-7.58c1.039,0 2.03,0.21 2.933,0.589c0.298,-4.88 4.356,-8.752 9.312,-8.752c5.149,0 9.329,4.18 9.329,9.329c0,0.815 -0.105,1.606 -0.302,2.36l0.328,0l0,0c3.214,0.01 5.82,2.613 5.82,5.817c0,3.205 -2.606,5.807 -5.82,5.817l0,0l-21.6,0Z" style="fill:none;stroke:#00a9ff;stroke-width:2px;"/></g></svg>