<?xml version="1.0" encoding="UTF-8" standalone="no"?><!DOCTYPE svg PUBLIC "-//W3C//DTD SVG 1.1//EN" "http://www.w3.org/Graphics/SVG/1.1/DTD/svg11.dtd"><svg width="100%" height="100%" viewBox="0 0 64 64" version="1.1" xmlns="http://www.w3.org/2000/svg" xmlns:xlink="http://www.w3.org/1999/xlink" xml:space="preserve" xmlns:serif="http://www.serif.com/" style="fill-rule:evenodd;clip-rule:evenodd;stroke-linecap:round;stroke-linejoin:round;stroke-miterlimit:1.5;"><g id="Isolated-Thunderstorms-Day" serif:id="Isolated Thunderstorms Day"><g id="Partly-Cloudy-Day" serif:id="Partly Cloudy Day"><path d="M13.919,25.47c-1.594,-1.493 -2.591,-3.616 -2.591,-5.97c0,-4.514 3.665,-8.179 8.18,-8.179c4.195,0 7.658,3.166 8.125,7.237" style="fill:none;stroke:#ffd500;stroke-width:2px;"/><path d="M19.508,6.829l0,-4.829" style="fill:none;stroke:#ffd500;stroke-width:2px;"/><path d="M6.837,19.5l-4.829,0" style="fill:none;stroke:#ffd500;stroke-width:2px;"/><path d="M28.467,10.54l3.415,-3.414" style="fill:none;stroke:#ffd500;stroke-width:2px;"/><path d="M10.548,28.46l-3.415,3.414" style="fill:none;stroke:#ffd500;stroke-width:2px;"/><path d="M10.548,10.54l-3.415,-3.414" style="fill:none;stroke:#ffd500;stroke-width:2px;"/><path id="Medium-cloud" serif:id="Medium cloud" d="M22.793,43.329c-5.976,0 -10.828,-4.853 -10.828,-10.829c0,-5.977 4.852,-10.829 10.828,-10.829c1.486,0 2.901,0.3 4.191,0.842c0.426,-6.973 6.223,-12.504 13.302,-12.504c7.356,0 13.328,5.972 13.328,13.328c0,1.164 -0.15,2.294 -0.431,3.371l0.468,0l0,0c4.591,0.014 8.314,3.733 8.314,8.31c0,4.578 -3.723,8.296 -8.314,8.311l0,0l-30.858,0Z" style="fill:none;stroke:#00a9ff;stroke-width:2px;"/></g><g id="Thunder"><g id="Rain-Fast" serif:id="Rain Fast"><path id="Rain-Fast1" serif:id="Rain Fast" d="M34.2,56l2.144,-8" style="fill:none;stroke:#fff;stroke-width:2px;"/></g><g id="Rain-Fast2" serif:id="Rain Fast"><path id="Rain-Fast3" serif:id="Rain Fast" d="M28.2,56l2.144,-8" style="fill:none;stroke:#fff;stroke-width:2px;"/></g><g id="Ligthning"><path id="Ligthning1" serif:id="Ligthning" d="M41.425,60l4.355,-7.418l-2.061,-0.137l1.43,-4.445l-3.724,0l-1.225,6l2.446,0.75l-1.221,5.25Z" style="fill:none;stroke:#fff;stroke-width:2px;"/></g></g></g></svg>