<?xml version="1.0" encoding="UTF-8" standalone="no"?><!DOCTYPE svg PUBLIC "-//W3C//DTD SVG 1.1//EN" "http://www.w3.org/Graphics/SVG/1.1/DTD/svg11.dtd"><svg width="100%" height="100%" viewBox="0 0 64 64" version="1.1" xmlns="http://www.w3.org/2000/svg" xmlns:xlink="http://www.w3.org/1999/xlink" xml:space="preserve" xmlns:serif="http://www.serif.com/" style="fill-rule:evenodd;clip-rule:evenodd;stroke-linecap:round;stroke-linejoin:round;stroke-miterlimit:1.5;"><g id="Partly-Cloudy-Moderate-Sleet-Day" serif:id="Partly Cloudy Moderate Sleet Day"><g id="Partly-Cloudy-Day" serif:id="Partly Cloudy Day"><path id="Curve" d="M13.911,25.48c-1.594,-1.493 -2.59,-3.617 -2.59,-5.971c0,-4.514 3.665,-8.179 8.179,-8.179c4.196,0 7.658,3.166 8.126,7.237" style="fill:none;stroke:#ffd500;stroke-width:2px;"/><path id="Curve1" serif:id="Curve" d="M19.5,6.838l0,-4.829" style="fill:none;stroke:#ffd500;stroke-width:2px;"/><path id="Curve2" serif:id="Curve" d="M6.829,19.509l-4.829,0" style="fill:none;stroke:#ffd500;stroke-width:2px;"/><path id="Curve3" serif:id="Curve" d="M28.46,10.55l3.414,-3.415" style="fill:none;stroke:#ffd500;stroke-width:2px;"/><path id="Curve4" serif:id="Curve" d="M10.54,28.469l-3.414,3.415" style="fill:none;stroke:#ffd500;stroke-width:2px;"/><path id="Curve5" serif:id="Curve" d="M10.54,10.55l-3.414,-3.415" style="fill:none;stroke:#ffd500;stroke-width:2px;"/><path id="Medium-cloud" serif:id="Medium cloud" d="M22.786,43.338c-5.977,0 -10.829,-4.852 -10.829,-10.829c0,-5.976 4.852,-10.829 10.829,-10.829c1.485,0 2.901,0.3 4.19,0.842c0.426,-6.972 6.224,-12.503 13.303,-12.503c7.355,0 13.327,5.972 13.327,13.327c0,1.165 -0.149,2.294 -0.43,3.371l0.468,0l0,0c4.59,0.015 8.313,3.733 8.313,8.311c0,4.577 -3.723,8.296 -8.313,8.31l0,0l-30.858,0Z" style="fill:none;stroke:#00a9ff;stroke-width:2px;"/></g><g id="Sleet"><path id="Drop-S" serif:id="Drop S" d="M41.168,53.041l1.746,3.733c0.185,0.37 0.354,0.735 0.354,1.167c0,1.159 -0.941,2.1 -2.1,2.1c-1.159,0 -2.1,-0.941 -2.1,-2.1c0,-0.432 0.171,-0.776 0.354,-1.167l-0.001,0l1.747,-3.733Z" style="fill:none;stroke:#fff;stroke-width:2px;"/><g id="Group"><path id="Curve6" serif:id="Curve" d="M45.999,48.041l0,7" style="fill:none;stroke:#fff;stroke-width:2px;"/><path id="Curve7" serif:id="Curve" d="M42.968,53.291l6.062,-3.5" style="fill:none;stroke:#fff;stroke-width:2px;"/><path id="Curve8" serif:id="Curve" d="M42.968,49.791l6.062,3.5" style="fill:none;stroke:#fff;stroke-width:2px;"/></g></g><g id="Sleet1" serif:id="Sleet"><path id="Drop-S1" serif:id="Drop S" d="M25.168,53.041l1.746,3.733c0.185,0.37 0.354,0.735 0.354,1.167c0,1.159 -0.941,2.1 -2.1,2.1c-1.159,0 -2.1,-0.941 -2.1,-2.1c0,-0.432 0.171,-0.776 0.354,-1.167l-0.001,0l1.747,-3.733Z" style="fill:none;stroke:#fff;stroke-width:2px;"/><g id="Group1" serif:id="Group"><path id="Curve9" serif:id="Curve" d="M29.999,48.041l0,7" style="fill:none;stroke:#fff;stroke-width:2px;"/><path id="Curve10" serif:id="Curve" d="M26.968,53.291l6.062,-3.5" style="fill:none;stroke:#fff;stroke-width:2px;"/><path id="Curve11" serif:id="Curve" d="M26.968,49.791l6.062,3.5" style="fill:none;stroke:#fff;stroke-width:2px;"/></g></g></g></svg>