<?xml version="1.0" encoding="UTF-8" standalone="no"?><!DOCTYPE svg PUBLIC "-//W3C//DTD SVG 1.1//EN" "http://www.w3.org/Graphics/SVG/1.1/DTD/svg11.dtd"><svg width="100%" height="100%" viewBox="0 0 64 64" version="1.1" xmlns="http://www.w3.org/2000/svg" xmlns:xlink="http://www.w3.org/1999/xlink" xml:space="preserve" xmlns:serif="http://www.serif.com/" style="fill-rule:evenodd;clip-rule:evenodd;stroke-linecap:round;stroke-linejoin:round;stroke-miterlimit:1.5;"><g id="Partly-Cloudy-Moderate-Rain-Day" serif:id="Partly Cloudy Moderate Rain Day"><g id="Partly-Cloudy-Day" serif:id="Partly Cloudy Day"><path id="Curve" d="M13.911,25.47c-1.594,-1.493 -2.59,-3.616 -2.59,-5.97c0,-4.514 3.665,-8.179 8.179,-8.179c4.196,0 7.658,3.166 8.126,7.237" style="fill:none;stroke:#ffd500;stroke-width:2px;"/><path id="Curve1" serif:id="Curve" d="M19.5,6.829l0,-4.829" style="fill:none;stroke:#ffd500;stroke-width:2px;"/><path id="Curve2" serif:id="Curve" d="M6.829,19.5l-4.829,0" style="fill:none;stroke:#ffd500;stroke-width:2px;"/><path id="Curve3" serif:id="Curve" d="M28.46,10.54l3.414,-3.414" style="fill:none;stroke:#ffd500;stroke-width:2px;"/><path id="Curve4" serif:id="Curve" d="M10.54,28.46l-3.414,3.414" style="fill:none;stroke:#ffd500;stroke-width:2px;"/><path id="Curve5" serif:id="Curve" d="M10.54,10.54l-3.414,-3.414" style="fill:none;stroke:#ffd500;stroke-width:2px;"/><path id="Medium-cloud" serif:id="Medium cloud" d="M22.786,43.329c-5.977,0 -10.829,-4.853 -10.829,-10.829c0,-5.977 4.852,-10.829 10.829,-10.829c1.485,0 2.901,0.3 4.19,0.842c0.426,-6.973 6.224,-12.504 13.303,-12.504c7.355,0 13.327,5.972 13.327,13.328c0,1.164 -0.149,2.294 -0.43,3.371l0.468,0l0,0c4.59,0.014 8.313,3.733 8.313,8.31c0,4.578 -3.723,8.296 -8.313,8.311l0,0l-30.858,0Z" style="fill:none;stroke:#00a9ff;stroke-width:2px;"/></g><g id="Drop-S" serif:id="Drop S"><path id="Drop-S1" serif:id="Drop S" d="M43,48l2.993,6.4c0.318,0.635 0.607,1.26 0.607,2c0,1.987 -1.613,3.6 -3.6,3.6c-1.987,0 -3.6,-1.613 -3.6,-3.6c0,-0.74 0.294,-1.33 0.607,-2l-0.003,0l2.996,-6.4Z" style="fill:none;stroke:#fff;stroke-width:2px;"/></g><g id="Drop-S2" serif:id="Drop S"><path id="Drop-S3" serif:id="Drop S" d="M31,48l2.993,6.4c0.318,0.635 0.607,1.26 0.607,2c0,1.987 -1.613,3.6 -3.6,3.6c-1.987,0 -3.6,-1.613 -3.6,-3.6c0,-0.74 0.294,-1.33 0.607,-2l-0.003,0l2.996,-6.4Z" style="fill:none;stroke:#fff;stroke-width:2px;"/></g></g></svg>