<?xml version="1.0" encoding="UTF-8" standalone="no"?><!DOCTYPE svg PUBLIC "-//W3C//DTD SVG 1.1//EN" "http://www.w3.org/Graphics/SVG/1.1/DTD/svg11.dtd"><svg width="100%" height="100%" viewBox="0 0 64 64" version="1.1" xmlns="http://www.w3.org/2000/svg" xmlns:xlink="http://www.w3.org/1999/xlink" xml:space="preserve" xmlns:serif="http://www.serif.com/" style="fill-rule:evenodd;clip-rule:evenodd;stroke-linecap:round;stroke-linejoin:round;stroke-miterlimit:1.5;"><g id="Scattered-Thunderstorms-Day" serif:id="Scattered Thunderstorms Day"><g id="Mostly-Cloudy-Day" serif:id="Mostly Cloudy Day"><path d="M12.052,22.868c-0.465,-1.028 -0.724,-2.168 -0.724,-3.368c0,-4.514 3.665,-8.179 8.18,-8.179c2.208,0 4.214,0.877 5.686,2.302" style="fill:none;stroke:#ffd500;stroke-width:2px;"/><path d="M19.508,6.829l0,-4.829" style="fill:none;stroke:#ffd500;stroke-width:2px;"/><path d="M6.837,19.5l-4.829,0" style="fill:none;stroke:#ffd500;stroke-width:2px;"/><path d="M28.467,10.54l3.415,-3.414" style="fill:none;stroke:#ffd500;stroke-width:2px;"/><path d="M10.548,10.54l-3.415,-3.414" style="fill:none;stroke:#ffd500;stroke-width:2px;"/><path id="Cloud" d="M48.194,43.329l-30.858,0c-5.976,0 -10.828,-4.853 -10.828,-10.829c0,-5.977 4.852,-10.829 10.828,-10.829c1.486,0 2.901,0.3 4.19,0.842c0.427,-6.973 6.224,-12.504 13.303,-12.504c6.222,0 11.455,4.274 12.919,10.043" style="fill:none;stroke:#00a9ff;stroke-width:2px;"/><path id="Cloud1" serif:id="Cloud" d="M34.545,43.329c-4.184,0 -7.58,-3.397 -7.58,-7.58c0,-4.184 3.396,-7.581 7.58,-7.581c1.039,0 2.031,0.21 2.933,0.59c0.298,-4.881 4.356,-8.753 9.312,-8.753c5.149,0 9.329,4.18 9.329,9.33c0,0.815 -0.105,1.605 -0.301,2.359l0.327,0l0,0c3.214,0.01 5.82,2.613 5.82,5.817c0,3.205 -2.606,5.808 -5.82,5.818l0,0l-21.6,0Z" style="fill:none;stroke:#00a9ff;stroke-width:2px;"/></g><g id="Thunder"><g id="Rain-Fast" serif:id="Rain Fast"><path id="Rain-Fast1" serif:id="Rain Fast" d="M31.4,56l2.144,-8" style="fill:none;stroke:#fff;stroke-width:2px;"/></g><g id="Rain-Fast2" serif:id="Rain Fast"><path id="Rain-Fast3" serif:id="Rain Fast" d="M25.4,56l2.144,-8" style="fill:none;stroke:#fff;stroke-width:2px;"/></g><g id="Ligthning"><path id="Ligthning1" serif:id="Ligthning" d="M38.625,60l4.355,-7.418l-2.061,-0.137l1.43,-4.445l-3.724,0l-1.225,6l2.446,0.75l-1.221,5.25Z" style="fill:none;stroke:#fff;stroke-width:2px;"/></g></g></g></svg>