<?xml version="1.0" encoding="UTF-8" standalone="no"?><!DOCTYPE svg PUBLIC "-//W3C//DTD SVG 1.1//EN" "http://www.w3.org/Graphics/SVG/1.1/DTD/svg11.dtd"><svg width="100%" height="100%" viewBox="0 0 51 64" version="1.1" xmlns="http://www.w3.org/2000/svg" xmlns:xlink="http://www.w3.org/1999/xlink" xml:space="preserve" xmlns:serif="http://www.serif.com/" style="fill-rule:evenodd;clip-rule:evenodd;stroke-linecap:round;stroke-linejoin:round;stroke-miterlimit:1.5;"><g id="Rain"><path id="Drop" d="M20,2l14.965,32c1.59,3.174 3.035,6.301 3.035,10c0,9.934 -8.066,18 -18,18c-9.934,0 -18,-8.066 -18,-18c0,-3.699 1.468,-6.652 3.035,-10l-0.013,0l14.978,-32Z" style="fill:none;stroke:#fff;stroke-width:4px;"/><path id="Drop1" serif:id="Drop" d="M39.667,2l7.482,16c0.795,1.587 1.518,3.15 1.518,5c0,4.967 -4.033,9 -9,9c-4.967,0 -9,-4.033 -9,-9c0,-1.85 0.734,-3.326 1.517,-5l-0.006,0l7.489,-16Z" style="fill:none;stroke:#fff;stroke-width:4px;"/></g></svg>